<svg width="18" height="18" viewBox="0 0 18 18" fill="none" xmlns="http://www.w3.org/2000/svg">
<path d="M2.71231 0.026886C2.04551 0.139038 1.4424 0.453062 0.955408 0.939053C0.595786 1.30168 0.442197 1.52598 0.243656 1.99328C-0.0148225 2.58768 0.000161746 2.20636 0.000161746 8.97284C0.000161746 15.5935 -0.00733038 15.3318 0.206195 15.8926C0.352292 16.2851 0.577056 16.6365 0.895471 16.9692C1.34874 17.444 1.83573 17.7281 2.48006 17.9001L2.79098 17.9823L8.76595 17.9973C13.0177 18.0048 14.8496 17.9973 15.1118 17.9674C15.891 17.8777 16.5203 17.5823 17.0597 17.0478C17.4606 16.6515 17.6966 16.2664 17.8914 15.687L18 15.3692V9.01396V2.65871L17.9138 2.36338C17.5992 1.27551 16.7825 0.4568 15.6774 0.109131L15.3403 0.00445557L9.12183 0.000717163C5.70167 -0.00302124 2.8172 0.00819397 2.71231 0.026886ZM6.70187 6.76719C7.96429 7.97843 8.98697 8.98406 8.98322 8.99901C8.97573 9.01396 7.93807 10.0196 6.67565 11.2346L4.37557 13.444L3.77994 12.872C3.45403 12.5617 3.18432 12.2851 3.18806 12.2664C3.18806 12.2439 3.94851 11.5037 4.87379 10.6215C5.79532 9.73547 6.55203 9.00275 6.55577 8.99153C6.55577 8.97658 5.79907 8.23638 4.87005 7.34664C3.94477 6.45691 3.18432 5.72045 3.18432 5.70923C3.18432 5.66063 4.33061 4.54659 4.36807 4.55407C4.3943 4.56155 5.44319 5.55596 6.70187 6.76719ZM14.872 12.7523V13.444H12.6993H10.5266V12.7523V12.0607H12.6993H14.872V12.7523Z" fill="#C92071"/>
</svg>
