<svg width="21" height="21" viewBox="0 0 21 21" fill="none" xmlns="http://www.w3.org/2000/svg">
<path d="M15.3801 3.58984C15.0674 3.58984 14.7675 3.71406 14.5464 3.93517C14.3253 4.15627 14.2011 4.45615 14.2011 4.76884C14.2009 4.92375 14.2313 5.07717 14.2905 5.22033C14.3497 5.36349 14.4365 5.49358 14.546 5.60317C14.6555 5.71275 14.7855 5.79969 14.9286 5.859C15.0717 5.91831 15.2251 5.94884 15.3801 5.94884C15.6927 5.94884 15.9926 5.82463 16.2137 5.60352C16.4348 5.38242 16.5591 5.08253 16.5591 4.76984C16.5592 4.61493 16.5288 4.46151 16.4696 4.31835C16.4104 4.17519 16.3236 4.0451 16.2141 3.93552C16.1046 3.82593 15.9746 3.739 15.8315 3.67968C15.6884 3.62037 15.535 3.58984 15.3801 3.58984Z" fill="white"/>
<path d="M10.139 5.10205C8.82624 5.10337 7.5676 5.62539 6.63924 6.55357C5.71087 7.48174 5.1886 8.74028 5.18701 10.0531C5.1886 11.3659 5.71084 12.6246 6.63918 13.5529C7.56751 14.4812 8.82615 15.0035 10.139 15.0051C11.4519 15.0035 12.7105 14.4812 13.6388 13.5529C14.5672 12.6246 15.0894 11.3659 15.091 10.0531C15.0894 8.74028 14.5672 7.48174 13.6388 6.55357C12.7104 5.62539 11.4518 5.10337 10.139 5.10205ZM10.139 13.2251C9.29782 13.2243 8.49131 12.8897 7.89659 12.2948C7.30187 11.6999 6.96754 10.8932 6.96701 10.0521C6.9678 9.21103 7.30226 8.40468 7.89695 7.80999C8.49164 7.21529 9.29799 6.88084 10.139 6.88005C10.98 6.88084 11.7864 7.21529 12.3811 7.80999C12.9758 8.40468 13.3102 9.21103 13.311 10.0521C13.3105 10.8932 12.9762 11.6999 12.3814 12.2948C11.7867 12.8897 10.9802 13.2243 10.139 13.2251Z" fill="white"/>
<path d="M14.071 20.107H6.039C4.43792 20.1051 2.90296 19.4683 1.77083 18.3362C0.638697 17.204 0.00185264 15.6691 0 14.068V6.04C0.00158799 4.43875 0.638318 2.90353 1.77048 1.77118C2.90264 0.638836 4.43775 0.00185312 6.039 0H14.067C15.6681 0.00185264 17.203 0.638697 18.3352 1.77083C19.4673 2.90296 20.1041 4.43793 20.106 6.039V14.067C20.1044 15.6676 19.4682 17.2022 18.3369 18.3344C17.2056 19.4666 15.6716 20.1041 14.071 20.107ZM6.039 1.892C4.93955 1.89332 3.88552 2.33066 3.10809 3.10809C2.33066 3.88552 1.89333 4.93955 1.892 6.039V14.067C1.89174 15.1675 2.32837 16.2231 3.10597 17.0018C3.88357 17.7805 4.93851 18.2187 6.039 18.22H14.067C15.1667 18.2189 16.2211 17.7818 16.9989 17.0043C17.7767 16.2269 18.2144 15.1727 18.216 14.073V6.045C18.2144 4.94529 17.7767 3.8911 16.9989 3.11367C16.2211 2.33625 15.1667 1.89906 14.067 1.898L6.039 1.892Z" fill="white"/>
</svg>
