<svg width="23" height="19" viewBox="0 0 23 19" fill="none" xmlns="http://www.w3.org/2000/svg">
<path d="M22.0295 2.1827C21.314 2.48984 20.5623 2.70425 19.7925 2.8207C20.1535 2.7597 20.6815 2.1087 20.8925 1.8457C21.2238 1.44561 21.476 0.986097 21.6355 0.491703C21.6545 0.452703 21.6685 0.404702 21.6295 0.374702C21.6105 0.366484 21.5898 0.363096 21.5692 0.364841C21.5486 0.366586 21.5288 0.373413 21.5115 0.384704C20.6731 0.832014 19.7822 1.17298 18.8595 1.3997C18.8275 1.40971 18.7933 1.41042 18.7609 1.40175C18.7285 1.39307 18.6992 1.37537 18.6765 1.3507C18.6052 1.26602 18.5276 1.1868 18.4445 1.1137C18.0609 0.784229 17.6266 0.518816 17.1585 0.327701C16.5343 0.0739698 15.8607 -0.0347595 15.1885 0.00970429C14.5353 0.0536787 13.8985 0.233154 13.3185 0.536705C12.7374 0.840804 12.2243 1.25998 11.8105 1.7687C11.3824 2.29564 11.0752 2.91009 10.9105 3.5687C10.7714 4.19295 10.7554 4.83834 10.8635 5.4687C10.8775 5.5757 10.8695 5.5897 10.7715 5.5757C7.26196 5.21785 4.01231 3.56325 1.65846 0.935703C1.55146 0.814703 1.49446 0.814703 1.40746 0.945703C0.934025 1.81965 0.755001 2.82296 0.896953 3.80672C1.03891 4.79048 1.49427 5.70225 2.19546 6.4067C2.37346 6.5757 2.55746 6.7447 2.75446 6.8987C2.14197 6.85276 1.54474 6.68552 0.997463 6.4067C0.890463 6.3387 0.836456 6.3777 0.828456 6.4987C0.820833 6.6732 0.830211 6.84802 0.856456 7.0207C0.962275 7.8431 1.28497 8.62254 1.79142 9.27907C2.29788 9.9356 2.96987 10.4456 3.73846 10.7567C3.9256 10.8386 4.12156 10.8987 4.32246 10.9357C3.75475 11.0492 3.17207 11.0671 2.59846 10.9887C2.47246 10.9647 2.42346 11.0277 2.47246 11.1487C2.76737 11.9213 3.25497 12.6057 3.88893 13.1367C4.52288 13.6677 5.28212 14.0278 6.09446 14.1827C6.25846 14.2117 6.42146 14.2117 6.58646 14.2507C6.57646 14.2647 6.56746 14.2647 6.55746 14.2797C5.85392 14.9146 5.00386 15.365 4.08346 15.5907C2.87983 16.0203 1.59749 16.1844 0.324459 16.0717C0.124459 16.0427 0.0804631 16.0437 0.0244631 16.0717C-0.0315369 16.0997 0.0174618 16.1547 0.0824618 16.2067C0.339462 16.3757 0.599459 16.5257 0.864459 16.6717C1.66345 17.0966 2.50601 17.4338 3.37746 17.6777C5.61945 18.352 7.99912 18.4262 10.2788 17.8929C12.5584 17.3596 14.6582 16.2375 16.3685 14.6387C19.0315 11.9937 19.9685 8.3457 19.9685 4.6937C19.9685 4.5507 20.1375 4.4717 20.2385 4.3937C20.9134 3.86955 21.5087 3.25007 22.0055 2.5547C22.0837 2.4542 22.1253 2.33004 22.1235 2.2027V2.1827C22.1205 2.1267 22.1195 2.1447 22.0295 2.1827Z" fill="white"/>
</svg>
